<svg width="149" height="40" viewBox="0 0 149 40" fill="none" xmlns="http://www.w3.org/2000/svg">
<path d="M13.1994 6.3999H30.0647L17.6653 24.7782H0.800049L13.1994 6.3999Z" fill="#14142B"/>
<path d="M13.9379 26.4816L9.13538 33.6H26.8007L39.2 15.2217H26.1619L18.5651 26.4816H13.9379Z" fill="#FFD124"/>
<path d="M53.712 28.5H57.816L63.48 11.7H59.856L55.776 24.612L51.672 11.7H48.072L53.712 28.5ZM66.0223 15.06C67.0783 15.06 67.9423 14.196 67.9423 13.164C67.9423 12.132 67.0783 11.244 66.0223 11.244C64.9903 11.244 64.1263 12.132 64.1263 13.164C64.1263 14.196 64.9903 15.06 66.0223 15.06ZM64.4863 28.5H67.5823V16.5H64.4863V28.5ZM77.4 16.164C75.648 16.164 74.376 16.812 73.512 17.916V16.5H70.416V33.3H73.512V27.084C74.376 28.188 75.648 28.836 77.4 28.836C80.616 28.836 83.256 26.076 83.256 22.5C83.256 18.924 80.616 16.164 77.4 16.164ZM76.824 25.884C74.928 25.884 73.512 24.516 73.512 22.5C73.512 20.484 74.928 19.116 76.824 19.116C78.744 19.116 80.16 20.484 80.16 22.5C80.16 24.516 78.744 25.884 76.824 25.884ZM99.5514 28.836C102.647 28.836 105.359 27.276 106.775 24.876L103.919 23.22C103.127 24.684 101.471 25.596 99.5514 25.596C96.2634 25.596 94.1034 23.316 94.1034 20.1C94.1034 16.86 96.2634 14.58 99.5514 14.58C101.471 14.58 103.103 15.492 103.919 16.98L106.775 15.324C105.335 12.924 102.623 11.364 99.5514 11.364C94.4634 11.364 90.8154 15.18 90.8154 20.1C90.8154 24.996 94.4634 28.836 99.5514 28.836ZM117.856 16.5V17.916C116.992 16.836 115.696 16.164 113.944 16.164C110.752 16.164 108.112 18.924 108.112 22.5C108.112 26.076 110.752 28.836 113.944 28.836C115.696 28.836 116.992 28.164 117.856 27.084V28.5H120.952V16.5H117.856ZM114.52 25.884C112.624 25.884 111.208 24.516 111.208 22.5C111.208 20.484 112.624 19.116 114.52 19.116C116.44 19.116 117.856 20.484 117.856 22.5C117.856 24.516 116.44 25.884 114.52 25.884ZM130.744 16.164C128.992 16.164 127.72 16.812 126.856 17.916V11.7H123.76V28.5H126.856V27.084C127.72 28.188 128.992 28.836 130.744 28.836C133.96 28.836 136.6 26.076 136.6 22.5C136.6 18.924 133.96 16.164 130.744 16.164ZM130.168 25.884C128.272 25.884 126.856 24.516 126.856 22.5C126.856 20.484 128.272 19.116 130.168 19.116C132.088 19.116 133.504 20.484 133.504 22.5C133.504 24.516 132.088 25.884 130.168 25.884ZM141.381 19.908C141.381 19.26 142.005 18.924 142.773 18.924C143.661 18.924 144.333 19.38 144.693 20.148L147.333 18.708C146.397 17.052 144.717 16.164 142.773 16.164C140.301 16.164 138.213 17.532 138.213 19.98C138.213 24.204 144.405 23.244 144.405 24.996C144.405 25.692 143.733 26.028 142.749 26.028C141.549 26.028 140.733 25.452 140.397 24.468L137.709 25.98C138.573 27.828 140.349 28.836 142.749 28.836C145.317 28.836 147.573 27.588 147.573 24.996C147.573 20.58 141.381 21.684 141.381 19.908Z" fill="#14142B"/>
</svg>
