<svg width="526" height="107" viewBox="0 0 526 107" fill="none" xmlns="http://www.w3.org/2000/svg">
<g opacity="0.4">
<mask id="mask0_1_1403" style="mask-type:alpha" maskUnits="userSpaceOnUse" x="0" y="0" width="683" height="107">
<path d="M1 106L682 106V1L1 1V106Z" fill="#F7F7F7" stroke="white" stroke-width="1.5"/>
</mask>
<g mask="url(#mask0_1_1403)">
<path d="M216.018 -91.8339C269.846 -91.8339 312.408 -66.6187 353.718 -42.1189C394.67 -17.9767 436.874 7.05959 489.987 7.05959C543.1 7.05959 585.304 -17.9767 626.256 -42.2977C648.252 -55.3524 670.785 -68.7647 694.927 -78.2427L696 -75.5602C672.037 -66.0822 649.504 -52.8487 627.687 -39.7941C586.556 -15.2943 543.815 9.9209 489.987 9.9209C436.159 9.9209 393.597 -15.2943 352.287 -39.7941C311.335 -64.1151 269.131 -89.1514 216.018 -89.1514C162.905 -89.1514 120.522 -64.1151 79.7489 -39.7941C38.6178 -15.2943 -4.12274 9.9209 -57.9508 9.9209V7.23844C-4.83807 7.23844 37.5449 -17.7979 78.3183 -42.1189C119.628 -66.6187 162.19 -91.8339 216.018 -91.8339Z" fill="#78859F" stroke="white" stroke-width="1.5"/>
<path d="M216.018 -73.7719C269.846 -73.7719 312.408 -48.5568 353.718 -24.057C394.67 0.264025 436.874 25.3003 489.987 25.3003C543.1 25.3003 585.304 0.264025 626.256 -24.057C648.252 -37.1116 670.785 -50.5239 694.927 -60.002L696 -57.4984C672.037 -48.0203 649.504 -34.7868 627.687 -21.7322C586.556 2.76763 543.815 27.9828 489.987 27.9828C436.159 27.9828 393.597 2.76763 352.287 -21.7322C311.335 -46.0532 269.131 -71.0895 216.018 -71.0895C162.905 -71.0895 120.522 -46.0532 79.7489 -21.7322C38.6178 2.76763 -4.12274 27.9828 -57.9508 27.9828V25.3003C-4.83807 25.3003 37.5449 0.264025 78.3183 -24.057C119.628 -48.5568 162.19 -73.7719 216.018 -73.7719Z" fill="#78859F" stroke="white" stroke-width="1.5"/>
<path d="M216.018 -55.8885C269.846 -55.8885 312.408 -30.6734 353.718 -6.17355C394.67 18.1474 436.874 43.1837 489.987 43.1837C543.1 43.1837 585.304 18.1474 626.256 -6.17355C648.252 -19.2282 670.785 -32.6405 694.927 -42.1186L696 -39.6149C672.037 -30.1369 649.504 -16.9034 627.687 -3.84877C586.556 20.6511 543.815 45.8662 489.987 45.8662C436.159 45.8662 393.597 20.6511 352.287 -3.84877C311.335 -28.1698 269.131 -53.2061 216.018 -53.2061C162.905 -53.2061 120.522 -28.1698 79.7489 -3.84877C38.6178 20.6511 -4.12274 45.8662 -57.9508 45.8662V43.1837C-4.83807 43.1837 37.5449 18.1474 78.3183 -6.17355C119.628 -30.4945 162.19 -55.8885 216.018 -55.8885Z" fill="#78859F" stroke="white" stroke-width="1.5"/>
<path d="M216.018 -37.8271C269.846 -37.8271 312.408 -12.612 353.718 11.8878C394.67 36.2088 436.874 61.2451 489.987 61.2451C543.1 61.2451 585.483 36.2088 626.256 11.8878C648.252 -1.16682 670.785 -14.5791 694.927 -24.0572L696 -21.5535C672.037 -12.0755 649.504 1.15798 627.687 14.2126C586.556 38.7125 543.815 63.9276 489.987 63.9276C436.159 63.9276 393.597 38.7125 352.287 14.2126C311.335 -10.1084 269.131 -35.1447 216.018 -35.1447C162.905 -35.1447 120.522 -10.1084 79.7489 14.2126C38.6178 38.7125 -4.12274 63.9276 -57.9508 63.9276V61.2451C-4.83807 61.2451 37.5449 36.2088 78.3183 11.8878C119.628 -12.612 162.19 -37.8271 216.018 -37.8271Z" fill="#78859F" stroke="white" stroke-width="1.5"/>
<path d="M216.018 -19.7652C269.846 -19.7652 312.408 5.44991 353.718 29.9497C394.67 54.2707 436.874 79.307 489.987 79.307C543.1 79.307 585.483 54.2707 626.256 29.9497C648.252 16.8951 670.964 3.48276 695.106 -5.99527L696 -3.49162C672.037 5.98641 649.504 19.2199 627.687 32.2745C586.556 56.7744 543.815 81.9895 489.987 81.9895C436.159 81.9895 393.597 56.7744 352.287 32.2745C311.335 7.95354 269.131 -17.0828 216.018 -17.0828C162.905 -17.0828 120.522 7.95354 79.7489 32.2745C38.6178 56.7744 -4.12274 81.9895 -57.9508 81.9895V79.307C-4.83807 79.307 37.5449 54.2707 78.3183 29.9497C119.628 5.44991 162.19 -19.7652 216.018 -19.7652Z" fill="#78859F" stroke="white" stroke-width="1.5"/>
<path d="M216.018 -1.88194C269.846 -1.88194 312.408 23.3332 353.718 47.833C394.67 72.154 436.874 97.1903 489.987 97.1903C543.1 97.1903 585.483 72.154 626.256 47.833C648.252 34.7784 670.964 21.3661 695.106 11.888L696 14.3917C672.037 23.8697 649.504 37.1032 627.687 50.1578C586.556 74.6577 543.815 99.8728 489.987 99.8728C436.159 99.8728 393.597 74.6577 352.287 50.1578C311.335 25.8368 269.131 0.800522 216.018 0.800522C162.905 0.800522 120.522 25.8368 79.7489 50.1578C38.6178 74.6577 -4.12274 99.8728 -57.9508 99.8728V97.1903C-4.83807 97.1903 37.5449 72.154 78.3183 47.833C119.628 23.3332 162.19 -1.88194 216.018 -1.88194Z" fill="#78859F" stroke="white" stroke-width="1.5"/>
<path d="M216.018 16.1797C269.846 16.1797 312.408 41.3948 353.718 65.8947C394.67 90.2157 436.874 115.252 489.987 115.252C543.1 115.252 585.304 90.2157 626.256 65.8947C648.252 52.84 670.785 39.4277 694.927 29.9497L696 32.4533C672.037 41.9313 649.504 55.1648 627.687 68.2195C586.556 92.7193 543.815 117.934 489.987 117.934C436.159 117.934 393.597 92.7193 352.287 68.2195C311.335 43.8985 269.131 18.8622 216.018 18.8622C162.905 18.8622 120.522 43.8985 79.7489 68.2195C38.6178 92.7193 -4.12274 117.934 -57.9508 117.934V115.252C-4.83807 115.252 37.5449 90.2157 78.3183 65.8947C119.628 41.3948 162.19 16.1797 216.018 16.1797Z" fill="#78859F" stroke="white" stroke-width="1.5"/>
<path d="M216.018 34.0629C269.846 34.0629 312.408 59.278 353.718 83.7779C394.67 108.099 436.874 133.135 489.987 133.135C543.1 133.135 585.483 108.099 626.256 83.7779C648.252 70.7232 670.785 57.3109 694.927 47.8329L696 50.3365C672.037 59.8145 649.504 73.048 627.687 86.1026C586.556 110.602 543.815 135.818 489.987 135.818C436.159 135.818 393.597 110.602 352.287 86.1026C311.335 61.7817 269.131 36.7454 216.018 36.7454C162.905 36.7454 120.522 61.7817 79.7489 86.1026C38.6178 110.602 -4.12274 135.818 -57.9508 135.818V133.135C-4.83807 133.135 37.5449 108.099 78.3183 83.7779C119.628 59.4569 162.19 34.0629 216.018 34.0629Z" fill="#78859F" stroke="white" stroke-width="1.5"/>
<path d="M216.018 52.1248C269.846 52.1248 312.408 77.3399 353.718 101.84C394.67 126.161 436.874 151.197 489.987 151.197C543.1 151.197 585.304 126.161 626.256 101.84C648.252 88.7851 670.785 75.3728 694.927 65.8947L696 68.3984C672.037 77.8764 649.504 91.1099 627.687 104.165C586.556 128.664 543.815 153.88 489.987 153.88C436.159 153.88 393.597 128.664 352.287 104.165C311.335 79.8436 269.131 54.8072 216.018 54.8072C162.905 54.8072 120.522 79.8436 79.7489 104.165C38.6178 128.664 -4.12274 153.88 -57.9508 153.88V151.197C-4.83807 151.197 37.5449 126.161 78.3183 101.84C119.628 77.3399 162.19 52.1248 216.018 52.1248Z" fill="#78859F" stroke="white" stroke-width="1.5"/>
<path d="M216.018 70.1869C269.846 70.1869 312.408 95.4021 353.718 119.902C394.67 144.223 436.874 169.259 489.987 169.259C543.1 169.259 585.483 144.044 626.256 119.723C648.252 106.847 670.964 93.4349 695.106 83.9569L696 86.4605C672.037 95.9386 649.504 109.172 627.687 122.227C586.556 146.727 543.815 171.942 489.987 171.942C436.159 171.942 393.597 146.727 352.287 122.227C311.335 97.9057 269.131 72.8694 216.018 72.8694C162.905 72.8694 120.522 97.9057 79.7489 122.227C38.6178 146.727 -4.12274 171.942 -57.9508 171.942V169.259C-4.83807 169.259 37.5449 144.223 78.3183 119.902C119.628 95.4021 162.19 70.1869 216.018 70.1869Z" fill="#78859F" stroke="white" stroke-width="1.5"/>
<path d="M216.018 88.0698C269.846 88.0698 312.408 113.285 353.718 137.785C394.67 162.106 436.874 187.142 489.987 187.142C543.1 187.142 585.304 162.106 626.256 137.785C648.252 124.73 670.964 111.318 695.106 101.84L696 104.343C672.037 113.821 649.504 127.055 627.687 140.11C586.556 164.609 543.815 189.825 489.987 189.825C436.159 189.825 393.597 164.609 352.287 140.11C311.335 115.789 269.131 90.7523 216.018 90.7523C162.905 90.7523 120.522 115.789 79.7489 140.11C38.6178 164.609 -4.12274 189.825 -57.9508 189.825V187.142C-4.83807 187.142 37.5449 162.106 78.3183 137.785C119.628 113.285 162.19 88.0698 216.018 88.0698Z" fill="#78859F" stroke="white" stroke-width="1.5"/>
<path d="M216.018 106.132C269.846 106.132 312.408 131.347 353.718 155.847C394.67 180.168 436.874 205.204 489.987 205.204C543.1 205.204 585.304 180.168 626.256 155.847C648.252 142.792 670.964 129.38 695.106 119.902L696 122.405C672.037 131.883 649.504 145.117 627.687 158.171C586.556 182.671 543.815 207.886 489.987 207.886C436.159 207.886 393.597 182.671 352.287 158.171C311.335 133.85 269.131 108.814 216.018 108.814C162.905 108.814 120.522 133.85 79.7489 158.171C38.6178 182.671 -4.12274 207.886 -57.9508 207.886V205.204C-4.83807 205.204 37.5449 180.168 78.3183 155.847C119.628 131.347 162.19 106.132 216.018 106.132Z" fill="#78859F" stroke="white" stroke-width="1.5"/>
</g>
</g>
</svg>
