<svg width="16" height="16" viewBox="0 0 16 16" fill="none" xmlns="http://www.w3.org/2000/svg">
<path d="M8.81593 2.63298L10.0388 4.84447C10.2064 5.14803 10.6269 5.4364 10.9727 5.47538L13.0312 5.73413C14.3492 5.89695 14.6891 6.83232 13.7922 7.81206L12.264 9.47185C12.0089 9.75 11.8765 10.2806 11.979 10.6448L12.5144 12.5989C12.9355 14.1417 12.1346 14.7812 10.7272 14.0234L8.76105 12.9646C8.40296 12.771 7.83418 12.7992 7.49776 13.0165L5.62608 14.228C4.28621 15.094 3.43362 14.5239 3.72762 12.9531L4.1041 10.9652C4.17439 10.5936 4.00587 10.0751 3.72772 9.81995L2.05883 8.28934C1.08486 7.38904 1.34685 6.42949 2.64471 6.15745L4.67122 5.73414C5.01323 5.65985 5.40958 5.34634 5.54873 5.02736L6.58697 2.71898C7.15448 1.47527 8.15569 1.43608 8.81593 2.63298Z" fill="#FFD840"/>
</svg>
