<svg width="60" height="60" viewBox="0 0 60 60" fill="none" xmlns="http://www.w3.org/2000/svg">
<g clip-path="url(#clip0_1_1585)">
<path d="M30 60C46.5685 60 60 46.5685 60 30C60 13.4315 46.5685 0 30 0C13.4315 0 0 13.4315 0 30C0 46.5685 13.4315 60 30 60Z" fill="#FFD840"/>
<path fill-rule="evenodd" clip-rule="evenodd" d="M20 30C19.9966 32.6528 21.0507 35.1976 22.929 37.071L20 40H30C35.523 40 40 35.523 40 30C40 24.477 35.523 20 30 20C24.477 20 20 24.477 20 30ZM30 35C27.7909 35 26 33.2091 26 31H34C34 33.2091 32.2091 35 30 35Z" fill="#14142B"/>
</g>
<defs>
<clipPath id="clip0_1_1585">
<rect width="60" height="60" fill="white"/>
</clipPath>
</defs>
</svg>
