<svg width="60" height="60" viewBox="0 0 60 60" fill="none" xmlns="http://www.w3.org/2000/svg">
<g clip-path="url(#clip0_1_1598)">
<path d="M30 60C46.5685 60 60 46.5685 60 30C60 13.4315 46.5685 0 30 0C13.4315 0 0 13.4315 0 30C0 46.5685 13.4315 60 30 60Z" fill="#FFD840"/>
<path fill-rule="evenodd" clip-rule="evenodd" d="M39.2849 24.5708L30.5139 19.3088L30.5149 19.3088C30.1979 19.1184 29.8018 19.1184 29.4849 19.3088L20.7149 24.5708C20.564 24.6611 20.4717 24.824 20.4717 24.9998C20.4717 25.1756 20.564 25.3385 20.7149 25.4288L29.9999 30.9998L39.2849 25.4288C39.4357 25.3385 39.528 25.1756 39.528 24.9998C39.528 24.824 39.4357 24.6611 39.2849 24.5708ZM38.0829 28.4998L39.2849 29.2208C39.4357 29.3111 39.528 29.474 39.528 29.6498C39.528 29.8256 39.4357 29.9885 39.2849 30.0788L29.9999 35.6498L20.7149 30.0788C20.564 29.9885 20.4717 29.8256 20.4717 29.6498C20.4717 29.474 20.564 29.3111 20.7149 29.2208L21.9169 28.4998L29.9999 33.3498L38.0829 28.4998ZM38.0829 33.1998L39.2849 33.9208C39.4357 34.0111 39.528 34.174 39.528 34.3498C39.528 34.5256 39.4357 34.6885 39.2849 34.7788L30.5149 40.0408C30.1979 40.2312 29.8018 40.2312 29.4849 40.0408L20.7149 34.7788C20.564 34.6885 20.4717 34.5256 20.4717 34.3498C20.4717 34.174 20.564 34.0111 20.7149 33.9208L21.9169 33.1998L29.9999 38.0498L38.0829 33.1998Z" fill="#14142B"/>
</g>
<defs>
<clipPath id="clip0_1_1598">
<rect width="60" height="60" fill="white"/>
</clipPath>
</defs>
</svg>
